<?xml version="1.0" standalone="no"?>
 <!DOCTYPE svg PUBLIC "-//W3C//DTD SVG 1.1//EN" 
 "http://www.w3.org/Graphics/SVG/1.1/DTD/svg11.dtd"> 
<svg
  xmlns:svg="http://www.w3.org/2000/svg"
  xmlns="http://www.w3.org/2000/svg"
  xmlns:xlink="http://www.w3.org/1999/xlink"
  version="1.1"
  width="603.4278mm" height="370.0780mm" viewBox="0.0000 0.0000 603.4278 370.0780">
<title>SVG Image created as ORCATOPBLANKTEMPLATE-Edge_Cuts.svg date 2025/12/16 10:32:19 </title>
  <desc>Image generated by PCBNEW </desc>
<g style="fill:#000000; fill-opacity:1.0000;stroke:#000000; stroke-opacity:1.0000;
stroke-linecap:round; stroke-linejoin:round;"
 transform="translate(0 0) scale(1 1)">
</g>
<g style="fill:#000000; fill-opacity:0.0; 
stroke:#000000; stroke-width:0.0000; stroke-opacity:1; 
stroke-linecap:round; stroke-linejoin:round;">
</g>
<g style="fill:#000000; fill-opacity:0.0; 
stroke:#000000; stroke-width:0.2000; stroke-opacity:1; 
stroke-linecap:round; stroke-linejoin:round;">
<path d="M124.6254 228.8973 A12.0000 12.0000 0.0 1 0 101.1499 223.9075" />
<path d="M121.7141 297.6333
L104.3791 323.3334
" />
<path d="M286.2326 233.3905
L291.6156 263.9195
" />
<circle cx="219.6450" cy="229.0637" r="11.5000" /> 
<path d="M603.3524 1.8415 A2.0003 2.0003 0.0 0 0 602.3410 0.1000" />
<path d="M98.7154 213.6873 A12.0000 12.0000 0.0 1 0 75.2399 208.6975" />
<circle cx="224.9800" cy="294.6787" r="11.5000" /> 
<circle cx="21.7350" cy="256.7337" r="11.5000" /> 
<circle cx="178.5000" cy="251.4037" r="11.5000" /> 
<path d="M75.2399 208.6975
L68.7946 239.0200
" />
<path d="M64.0370 184.9952 A15.9998 15.9998 0.0 0 0 56.0488 187.1320" />
<circle cx="265.1800" cy="214.2387" r="11.5000" /> 
<path d="M326.0926 216.4852
L275.1512 187.1320
" />
<path d="M64.0370 369.9952
L267.1630 369.9952
" />
<path d="M68.7946 239.0200 A12.0000 12.0000 0.0 1 0 92.2702 244.0099" />
<path d="M331.1000 225.1497 A10.0000 10.0000 0.0 0 0 326.0926 216.4852" />
<circle cx="199.0000" cy="339.7187" r="11.5000" /> 
<circle cx="185.9950" cy="317.1937" r="11.5000" /> 
<circle cx="198.9800" cy="294.6787" r="11.5000" /> 
<path d="M0.1000 329.8407
L0.1000 225.1497
" />
<path d="M56.0488 367.8584
L5.1074 338.5052
" />
<path d="M309.8679 229.2229
L315.2510 259.7520
" />
<path d="M56.0488 367.8584 A15.9999 15.9999 0.0 0 0 64.0370 369.9952" />
<path d="M331.1000 329.8407
L331.1000 225.1497
" />
<path d="M5.1074 216.4852 A10.0001 10.0001 0.0 0 0 0.1000 225.1497" />
<circle cx="212.0000" cy="317.1987" r="11.5000" /> 
<path d="M275.1512 367.8584
L326.0926 338.5052
" />
<path d="M124.6254 228.8973
L118.1802 259.2199
" />
<circle cx="244.5700" cy="237.1287" r="11.5000" /> 
<circle cx="270.6300" cy="239.8687" r="11.5000" /> 
<path d="M56.0488 187.1320
L5.1074 216.4852
" />
<path d="M326.0926 338.5052 A10.0000 10.0000 0.0 0 0 331.1000 329.8407" />
<circle cx="224.9800" cy="254.6787" r="11.5000" /> 
<path d="M98.7154 213.6873
L92.2702 244.0099
" />
<path d="M267.1630 184.9952
L64.0370 184.9952
" />
<circle cx="165.6650" cy="229.0637" r="11.5000" /> 
<path d="M45.3899 212.0775
L38.9446 242.4000
" />
<path d="M141.6110 311.0539 A12.0000 12.0000 0.0 0 0 121.7141 297.6333" />
<path d="M101.1499 223.9075
L94.7046 254.2300
" />
<path d="M141.6110 311.0539
L124.2760 336.7541
" />
<path d="M291.6157 263.9195 A12.0000 12.0000 0.0 1 0 315.2510 259.7520" />
<path d="M38.9446 242.4000 A12.0000 12.0000 0.0 1 0 62.4202 247.3899" />
<circle cx="239.1200" cy="211.4987" r="11.5000" /> 
<path d="M68.8654 217.0673 A12.0000 12.0000 0.0 1 0 45.3899 212.0775" />
<path d="M267.1630 369.9952 A15.9998 15.9998 0.0 0 0 275.1512 367.8584" />
<path d="M104.3791 323.3335 A12.0000 12.0000 0.0 0 0 124.2760 336.7541" />
<path d="M275.1512 187.1320 A15.9999 15.9999 0.0 0 0 267.1630 184.9952" />
<path d="M0.1000 329.8407 A10.0002 10.0002 0.0 0 0 5.1074 338.5052" />
<path d="M309.8680 229.2229 A12.0000 12.0000 0.0 1 0 286.2326 233.3905" />
<path d="M94.7046 254.2300 A12.0000 12.0000 0.0 1 0 118.1802 259.2199" />
<circle cx="152.5000" cy="251.4787" r="11.5000" /> 
<path d="M68.8654 217.0673
L62.4202 247.3899
" />
<g >
</g>
<g >
</g>
<g >
</g>
</g> 
</svg>
